# File created by Blade
# Date/Time:  Thu Jan 22 19:24:27 2015
#---------------------------------------------------------
:version 1.10
:name HOM
:units
  mass 1.0
  length 1.000000
  angle deg
:documentation
     Acclaim Skeleton File
:root
   axis xyz
   order TX TY TZ RX RY RZ
   position 0.000000 0.000000 0.000000
   orientation 0 0 0
:bonedata
   begin
      id 1
      name RightUpLeg_dum
      direction -1.000000 0.000000 0.000000
      length 4.478084
      axis 0.0 0.0 0.0 xyz
   end
   begin
      id 2
      name LeftUpLeg_dum
      direction 1.000000 0.000000 0.000000
      length 4.478084
      axis 0.0 0.0 0.0 xyz
   end
   begin
      id 3
      name Spine_dum
      direction 0.000000 1.000000 0.000000
      length 6.068208
      axis 0.0 0.0 0.0 xyz
   end
   begin
      id 4
      name RightUpLeg
      direction 0.000000 -1.000000 0.000000
      length 16.405774
      axis 0.0 0.0 0.0 xyz
      dof rx ry rz
   end
   begin
      id 5
      name RightLeg
      direction 0.000000 -1.000000 0.000000
      length 14.644143
      axis 0.0 0.0 0.0 xyz
      dof rx ry rz
   end
   begin
      id 6
      name RightFoot
      direction 0.000000 -0.258819 0.965926
      length 5.806150
      axis 15.0 0.0 0.0 xyz
      dof rx ry rz
   end
   begin
      id 7
      name RightToeBase
      direction 0.000000 0.000000 1.000000
      length 2.952750
      axis 0.0 0.0 0.0 xyz
      dof rx ry rz
   end
   begin
      id 8
      name LeftUpLeg
      direction 0.000000 -1.000000 0.000000
      length 16.405774
      axis 0.0 0.0 0.0 xyz
      dof rx ry rz
   end
   begin
      id 9
      name LeftLeg
      direction 0.000000 -1.000000 0.000000
      length 14.644143
      axis 0.0 0.0 0.0 xyz
      dof rx ry rz
   end
   begin
      id 10
      name LeftFoot
      direction 0.000000 -0.258819 0.965926
      length 5.806150
      axis 15.0 0.0 0.0 xyz
      dof rx ry rz
   end
   begin
      id 11
      name LeftToeBase
      direction 0.000000 0.000000 1.000000
      length 2.952750
      axis 0.0 0.0 0.0 xyz
      dof rx ry rz
   end
   begin
      id 12
      name Spine
      direction 0.000000 1.000000 0.000000
      length 0.000000
      axis 0.0 0.0 0.0 xyz
      dof rx ry rz
   end
   begin
      id 13
      name Spine_dum1
      direction 0.000000 1.000000 0.000000
      length 10.013923
      axis 0.0 0.0 0.0 xyz
   end
   begin
      id 14
      name Spine_dum2
      direction 0.000000 1.000000 0.000000
      length 10.013923
      axis 0.0 0.0 0.0 xyz
   end
   begin
      id 15
      name Spine_dum3
      direction 0.000000 1.000000 0.000000
      length 15.777476
      axis 0.0 0.0 0.0 xyz
   end
   begin
      id 16
      name RightShoulder
      direction -1.000000 0.000000 0.000000
      length 7.190220
      axis 0.0 0.0 90.0 xyz
      dof rx ry rz
   end
   begin
      id 17
      name RightArm
      direction -1.000000 0.000000 0.000000
      length 10.177469
      axis 0.0 0.0 90.0 xyz
      dof rx ry rz
   end
   begin
      id 18
      name RightForeArm
      direction -1.000000 0.000000 0.000000
      length 8.392114
      axis 0.0 0.0 90.0 xyz
      dof ry rz rx
   end
   begin
      id 19
      name RightHand
      direction -1.000000 0.000000 0.000000
      length 0.000000
      axis 0.0 0.0 90.0 xyz
      dof rx ry rz
   end
   begin
      id 20
      name RightHand_dum1
      direction -1.000000 0.000000 0.000000
      length 3.937000
      axis 0.0 0.0 90.0 xyz
   end
   begin
      id 21
      name RightHand_dum2
      direction 0.000000 0.000000 0.000000
      length 0.000000
      axis 0.0 0.0 90.0 xyz
   end
   begin
      id 22
      name RightHandThumb1
      direction 0.000000 0.000000 1.000000
      length 3.937000
      axis 0.0 0.0 90.0 xyz
      dof rx rz ry
   end
   begin
      id 23
      name LeftShoulder
      direction 1.000000 0.000000 0.000000
      length 7.190220
      axis 0.0 0.0 -90.0 xyz
      dof rx ry rz
   end
   begin
      id 24
      name LeftArm
      direction 1.000000 0.000000 0.000000
      length 10.177469
      axis 0.0 0.0 -90.0 xyz
      dof rx ry rz
   end
   begin
      id 25
      name LeftForeArm
      direction 1.000000 0.000000 0.000000
      length 8.392114
      axis 0.0 0.0 -90.0 xyz
      dof ry rz rx
   end
   begin
      id 26
      name LeftHand
      direction 1.000000 0.000000 0.000000
      length 0.000000
      axis 0.0 0.0 -90.0 xyz
      dof rx ry rz
   end
   begin
      id 27
      name LeftHand_dum1
      direction 1.000000 0.000000 0.000000
      length 3.937000
      axis 0.0 0.0 -90.0 xyz
   end
   begin
      id 28
      name LeftHand_dum2
      direction 0.000000 0.000000 0.000000
      length 0.000000
      axis 0.0 0.0 -90.0 xyz
   end
   begin
      id 29
      name LeftHandThumb1
      direction 0.000000 0.000000 1.000000
      length 3.937000
      axis 0.0 0.0 -90.0 xyz
      dof rx rz ry
   end
   begin
      id 30
      name Head
      direction 0.000000 1.000000 0.000000
      length 4.527550
      axis 0.0 0.0 0.0 xyz
      dof rx ry rz
   end
:hierarchy
   begin
      root RightUpLeg_dum LeftUpLeg_dum Spine_dum
      RightUpLeg_dum RightUpLeg
      LeftUpLeg_dum LeftUpLeg
      Spine_dum Spine
      RightUpLeg RightLeg
      RightLeg RightFoot
      RightFoot RightToeBase
      LeftUpLeg LeftLeg
      LeftLeg LeftFoot
      LeftFoot LeftToeBase
      Spine Spine_dum1 Spine_dum2 Spine_dum3
      Spine_dum1 RightShoulder
      Spine_dum2 LeftShoulder
      Spine_dum3 Head
      RightShoulder RightArm
      RightArm RightForeArm
      RightForeArm RightHand
      RightHand RightHand_dum1 RightHand_dum2
      RightHand_dum2 RightHandThumb1
      LeftShoulder LeftArm
      LeftArm LeftForeArm
      LeftForeArm LeftHand
      LeftHand LeftHand_dum1 LeftHand_dum2
      LeftHand_dum2 LeftHandThumb1
   end

# File created by Blade
# Date/Time:  Thu Jan 22 19:24:19 2015
# Frame Rate: 120.000 fps
#------------------------------------------------------
:FULLY-SPECIFIED
:DEGREES
279
root -1.841508 32.820542 -1.998073 9.616906 -4.982227 1.489470
RightUpLeg -3.356036 -7.103498 -6.150177
RightLeg 0.511225 -0.000000 -0.000000
RightFoot -11.902618 -3.587584 7.155751
RightToeBase 6.459418 -0.000000 -0.000000
LeftUpLeg -1.818106 10.279025 7.147658
LeftLeg 0.780866 -0.000000 -0.000000
LeftFoot -11.307238 4.040949 -23.152627
LeftToeBase 8.815998 -0.000000 -0.000000
Spine -9.287564 -0.995412 -0.814731
RightShoulder -18.433256 -10.347573 -29.480222
RightArm 18.979446 29.838986 37.439642
RightForeArm -15.742258 -0.000000 12.489099
RightHand 10.704770 -0.000000 9.784889
RightHandThumb1 -24.326973 -0.000000 -32.862282
LeftShoulder -23.452333 4.908037 31.655051
LeftArm 14.637355 -26.924212 -32.249982
LeftForeArm 26.212242 -0.000000 1.509550
LeftHand -1.758136 -0.000000 -9.605998
LeftHandThumb1 -26.253704 0.000000 33.147579
Head 1.869627 3.285794 -2.534888
280
root -1.853538 32.820216 -1.996723 9.631818 -4.952612 1.482717
RightUpLeg -3.358443 -7.097437 -6.124520
RightLeg 0.513375 -0.000000 -0.000000
RightFoot -11.908179 -3.601556 7.151597
RightToeBase 6.383238 -0.000000 -0.000000
LeftUpLeg -1.872921 10.258358 7.173293
LeftLeg 0.853945 -0.000000 -0.000000
LeftFoot -11.331326 4.031827 -23.174975
LeftToeBase 8.810631 -0.000000 -0.000000
Spine -9.279315 -1.045285 -0.808850
RightShoulder -18.441047 -10.338795 -29.472875
RightArm 18.961969 29.834922 37.439906
RightForeArm -15.739827 -0.000000 12.506645
RightHand 10.738573 -0.000000 9.760167
RightHandThumb1 -24.326973 -0.000000 -32.862282
LeftShoulder -23.452484 4.900585 31.636713
LeftArm 14.670787 -26.955621 -32.273016
LeftForeArm 26.225512 0.000000 1.511032
LeftHand -1.696718 -0.000000 -9.599453
LeftHandThumb1 -26.253704 0.000000 33.147579
Head 1.816099 3.325473 -2.528361
281
root -1.867537 32.819732 -1.994641 9.647443 -4.911172 1.473634
RightUpLeg -3.344550 -7.109063 -6.093058
RightLeg 0.492507 -0.000000 -0.000000
RightFoot -11.919998 -3.601389 7.136150
RightToeBase 6.450820 -0.000000 -0.000000
LeftUpLeg -1.924653 10.215640 7.209436
LeftLeg 0.918248 -0.000000 -0.000000
LeftFoot -11.355012 4.036722 -23.174943
LeftToeBase 8.835147 -0.000000 -0.000000
Spine -9.278185 -1.086031 -0.810315
RightShoulder -18.456985 -10.346872 -29.457232
RightArm 18.929844 29.858393 37.451558
RightForeArm -15.794204 -0.000000 12.561676
RightHand 10.739808 -0.000000 9.773959
RightHandThumb1 -24.326973 -0.000000 -32.862282
LeftShoulder -23.425708 4.882233 31.653764
LeftArm 14.684743 -26.875288 -32.293757
LeftForeArm 26.098638 -0.000000 1.537321
LeftHand -1.837816 -0.000000 -9.677891
LeftHandThumb1 -26.253704 0.000000 33.147579
Head 1.768953 3.355115 -2.502893
282
root -1.881221 32.819326 -1.992472 9.666659 -4.867477 1.461383
RightUpLeg -3.333470 -7.133210 -6.059457
RightLeg 0.467883 -0.000000 -0.000000
RightFoot -11.916773 -3.570251 7.158398
RightToeBase 6.468990 -0.000000 -0.000000
LeftUpLeg -1.984772 10.190147 7.245170
LeftLeg 0.993907 -0.000000 -0.000000
LeftFoot -11.378671 4.020296 -23.168535
LeftToeBase 8.847457 -0.000000 -0.000000
Spine -9.286058 -1.134091 -0.811183
RightShoulder -18.465603 -10.394567 -29.419235
RightArm 18.922458 29.894557 37.458842
RightForeArm -15.797445 -0.000000 12.619764
RightHand 10.725929 0.000000 9.778360
RightHandThumb1 -24.326973 -0.000000 -32.862282
LeftShoulder -23.412432 4.883965 31.656819
LeftArm 14.729756 -26.875856 -32.326828
LeftForeArm 26.066065 -0.000000 1.555440
LeftHand -1.786126 -0.000000 -9.651658
LeftHandThumb1 -26.253704 0.000000 33.147579
Head 1.735513 3.376549 -2.479126
283
root -1.893145 32.818680 -1.990247 9.690879 -4.830363 1.457812
RightUpLeg -3.322749 -7.154021 -6.037680
RightLeg 0.424954 -0.000000 -0.000000
RightFoot -11.904167 -3.522540 7.173273
RightToeBase 6.598971 -0.000000 -0.000000
LeftUpLeg -2.050152 10.186709 7.265694
LeftLeg 1.067698 -0.000000 -0.000000
LeftFoot -11.399309 4.007613 -23.134260
LeftToeBase 8.851403 -0.000000 -0.000000
Spine -9.300229 -1.173578 -0.815121
RightShoulder -18.480015 -10.426289 -29.393290
RightArm 18.900675 29.919014 37.466161
RightForeArm -15.823024 -0.000000 12.696922
RightHand 10.713413 -0.000000 9.790782
RightHandThumb1 -24.326973 -0.000000 -32.862282
LeftShoulder -23.408272 4.931339 31.646591
LeftArm 14.828115 -26.934367 -32.403455
LeftForeArm 26.075621 -0.000000 1.554908
LeftHand -1.711199 -0.000000 -9.676123
LeftHandThumb1 -26.253704 0.000000 33.147579
Head 1.683160 3.415101 -2.473673
